<mxfile host="app.diagrams.net" agent="Mozilla/5.0 (Windows NT 10.0; Win64; x64; rv:133.0) Gecko/20100101 Firefox/133.0" version="25.0.3">
  <diagram name="Page-1" id="ZgaQaSXS1_5IlA6P1yKQ">
    <mxGraphModel dx="2728" dy="963" grid="1" gridSize="10" guides="1" tooltips="1" connect="1" arrows="1" fold="1" page="1" pageScale="1" pageWidth="850" pageHeight="1100" math="0" shadow="0">
      <root>
        <mxCell id="0" />
        <mxCell id="1" parent="0" />
        <mxCell id="s6oy7LtDakHwm1-WZDtf-62" value="" style="rounded=1;whiteSpace=wrap;html=1;" parent="1" vertex="1">
          <mxGeometry x="690" y="610" width="400" height="470" as="geometry" />
        </mxCell>
        <mxCell id="s6oy7LtDakHwm1-WZDtf-10" style="edgeStyle=orthogonalEdgeStyle;rounded=0;orthogonalLoop=1;jettySize=auto;html=1;" parent="1" source="s6oy7LtDakHwm1-WZDtf-1" target="s6oy7LtDakHwm1-WZDtf-9" edge="1">
          <mxGeometry relative="1" as="geometry" />
        </mxCell>
        <mxCell id="s6oy7LtDakHwm1-WZDtf-11" style="edgeStyle=orthogonalEdgeStyle;rounded=0;orthogonalLoop=1;jettySize=auto;html=1;" parent="1" source="s6oy7LtDakHwm1-WZDtf-1" target="s6oy7LtDakHwm1-WZDtf-8" edge="1">
          <mxGeometry relative="1" as="geometry" />
        </mxCell>
        <mxCell id="s6oy7LtDakHwm1-WZDtf-15" style="edgeStyle=orthogonalEdgeStyle;rounded=0;orthogonalLoop=1;jettySize=auto;html=1;" parent="1" source="s6oy7LtDakHwm1-WZDtf-1" target="s6oy7LtDakHwm1-WZDtf-14" edge="1">
          <mxGeometry relative="1" as="geometry" />
        </mxCell>
        <mxCell id="s6oy7LtDakHwm1-WZDtf-1" value="ShipFactory" style="rounded=0;whiteSpace=wrap;html=1;fillColor=#fff2cc;strokeColor=#d6b656;" parent="1" vertex="1">
          <mxGeometry x="190" y="280" width="120" height="60" as="geometry" />
        </mxCell>
        <mxCell id="s6oy7LtDakHwm1-WZDtf-6" style="edgeStyle=orthogonalEdgeStyle;rounded=0;orthogonalLoop=1;jettySize=auto;html=1;entryX=0.5;entryY=0;entryDx=0;entryDy=0;" parent="1" source="s6oy7LtDakHwm1-WZDtf-2" target="s6oy7LtDakHwm1-WZDtf-1" edge="1">
          <mxGeometry relative="1" as="geometry">
            <Array as="points">
              <mxPoint x="120" y="230" />
              <mxPoint x="250" y="230" />
            </Array>
          </mxGeometry>
        </mxCell>
        <mxCell id="s6oy7LtDakHwm1-WZDtf-2" value="Weapon" style="rounded=0;whiteSpace=wrap;html=1;fillColor=#fff2cc;strokeColor=#d6b656;" parent="1" vertex="1">
          <mxGeometry x="60" y="140" width="120" height="60" as="geometry" />
        </mxCell>
        <mxCell id="7nodm3ykGLOfklfSfRpB-26" style="edgeStyle=orthogonalEdgeStyle;rounded=0;orthogonalLoop=1;jettySize=auto;html=1;entryX=0.5;entryY=0;entryDx=0;entryDy=0;" edge="1" parent="1" source="s6oy7LtDakHwm1-WZDtf-3" target="s6oy7LtDakHwm1-WZDtf-1">
          <mxGeometry relative="1" as="geometry" />
        </mxCell>
        <mxCell id="s6oy7LtDakHwm1-WZDtf-3" value="Engine" style="rounded=0;whiteSpace=wrap;html=1;fillColor=#fff2cc;strokeColor=#d6b656;" parent="1" vertex="1">
          <mxGeometry x="190" y="140" width="120" height="60" as="geometry" />
        </mxCell>
        <mxCell id="s6oy7LtDakHwm1-WZDtf-5" style="edgeStyle=orthogonalEdgeStyle;rounded=0;orthogonalLoop=1;jettySize=auto;html=1;" parent="1" source="s6oy7LtDakHwm1-WZDtf-4" target="s6oy7LtDakHwm1-WZDtf-2" edge="1">
          <mxGeometry relative="1" as="geometry" />
        </mxCell>
        <mxCell id="s6oy7LtDakHwm1-WZDtf-4" value="Projectile" style="rounded=0;whiteSpace=wrap;html=1;fillColor=#fff2cc;strokeColor=#d6b656;" parent="1" vertex="1">
          <mxGeometry x="60" y="30" width="120" height="60" as="geometry" />
        </mxCell>
        <mxCell id="s6oy7LtDakHwm1-WZDtf-64" style="edgeStyle=orthogonalEdgeStyle;rounded=0;orthogonalLoop=1;jettySize=auto;html=1;entryX=1;entryY=0.5;entryDx=0;entryDy=0;" parent="1" source="s6oy7LtDakHwm1-WZDtf-8" target="s6oy7LtDakHwm1-WZDtf-43" edge="1">
          <mxGeometry relative="1" as="geometry">
            <Array as="points">
              <mxPoint x="530" y="670" />
            </Array>
          </mxGeometry>
        </mxCell>
        <mxCell id="s6oy7LtDakHwm1-WZDtf-8" value="PlayerShip" style="rounded=0;whiteSpace=wrap;html=1;fillColor=#fff2cc;strokeColor=#d6b656;" parent="1" vertex="1">
          <mxGeometry x="470" y="280" width="120" height="60" as="geometry" />
        </mxCell>
        <mxCell id="s6oy7LtDakHwm1-WZDtf-9" value="BossShip" style="rounded=0;whiteSpace=wrap;html=1;fillColor=#fff2cc;strokeColor=#d6b656;" parent="1" vertex="1">
          <mxGeometry x="190" y="390" width="120" height="60" as="geometry" />
        </mxCell>
        <mxCell id="s6oy7LtDakHwm1-WZDtf-55" style="edgeStyle=orthogonalEdgeStyle;rounded=0;orthogonalLoop=1;jettySize=auto;html=1;" parent="1" source="s6oy7LtDakHwm1-WZDtf-14" target="s6oy7LtDakHwm1-WZDtf-37" edge="1">
          <mxGeometry relative="1" as="geometry" />
        </mxCell>
        <mxCell id="s6oy7LtDakHwm1-WZDtf-14" value="EnemyShips" style="rounded=0;whiteSpace=wrap;html=1;fillColor=#fff2cc;strokeColor=#d6b656;" parent="1" vertex="1">
          <mxGeometry x="-40" y="280" width="120" height="60" as="geometry" />
        </mxCell>
        <mxCell id="s6oy7LtDakHwm1-WZDtf-33" style="edgeStyle=orthogonalEdgeStyle;rounded=0;orthogonalLoop=1;jettySize=auto;html=1;entryX=1;entryY=0.5;entryDx=0;entryDy=0;" parent="1" source="s6oy7LtDakHwm1-WZDtf-16" target="s6oy7LtDakHwm1-WZDtf-8" edge="1">
          <mxGeometry relative="1" as="geometry" />
        </mxCell>
        <mxCell id="s6oy7LtDakHwm1-WZDtf-16" value="Experience" style="rounded=0;whiteSpace=wrap;html=1;fillColor=#fff2cc;strokeColor=#d6b656;" parent="1" vertex="1">
          <mxGeometry x="640" y="190" width="120" height="60" as="geometry" />
        </mxCell>
        <mxCell id="s6oy7LtDakHwm1-WZDtf-32" style="edgeStyle=orthogonalEdgeStyle;rounded=0;orthogonalLoop=1;jettySize=auto;html=1;entryX=1;entryY=0.5;entryDx=0;entryDy=0;" parent="1" source="s6oy7LtDakHwm1-WZDtf-17" target="s6oy7LtDakHwm1-WZDtf-8" edge="1">
          <mxGeometry relative="1" as="geometry" />
        </mxCell>
        <mxCell id="s6oy7LtDakHwm1-WZDtf-17" value="Inventory" style="rounded=0;whiteSpace=wrap;html=1;fillColor=#fff2cc;strokeColor=#d6b656;" parent="1" vertex="1">
          <mxGeometry x="640" y="280" width="120" height="60" as="geometry" />
        </mxCell>
        <mxCell id="s6oy7LtDakHwm1-WZDtf-34" style="edgeStyle=orthogonalEdgeStyle;rounded=0;orthogonalLoop=1;jettySize=auto;html=1;entryX=1;entryY=0.5;entryDx=0;entryDy=0;" parent="1" source="s6oy7LtDakHwm1-WZDtf-18" target="s6oy7LtDakHwm1-WZDtf-8" edge="1">
          <mxGeometry relative="1" as="geometry" />
        </mxCell>
        <mxCell id="s6oy7LtDakHwm1-WZDtf-18" value="Upgrades" style="rounded=0;whiteSpace=wrap;html=1;fillColor=#fff2cc;strokeColor=#d6b656;" parent="1" vertex="1">
          <mxGeometry x="640" y="380" width="120" height="60" as="geometry" />
        </mxCell>
        <mxCell id="s6oy7LtDakHwm1-WZDtf-35" value="" style="edgeStyle=orthogonalEdgeStyle;rounded=0;orthogonalLoop=1;jettySize=auto;html=1;" parent="1" source="s6oy7LtDakHwm1-WZDtf-19" target="s6oy7LtDakHwm1-WZDtf-18" edge="1">
          <mxGeometry relative="1" as="geometry" />
        </mxCell>
        <mxCell id="s6oy7LtDakHwm1-WZDtf-36" style="edgeStyle=orthogonalEdgeStyle;rounded=0;orthogonalLoop=1;jettySize=auto;html=1;entryX=1;entryY=0.5;entryDx=0;entryDy=0;" parent="1" source="s6oy7LtDakHwm1-WZDtf-19" target="s6oy7LtDakHwm1-WZDtf-17" edge="1">
          <mxGeometry relative="1" as="geometry" />
        </mxCell>
        <mxCell id="s6oy7LtDakHwm1-WZDtf-19" value="Pickups" style="rounded=0;whiteSpace=wrap;html=1;fillColor=#fff2cc;strokeColor=#d6b656;" parent="1" vertex="1">
          <mxGeometry x="870" y="330" width="120" height="60" as="geometry" />
        </mxCell>
        <mxCell id="s6oy7LtDakHwm1-WZDtf-26" style="edgeStyle=orthogonalEdgeStyle;rounded=0;orthogonalLoop=1;jettySize=auto;html=1;" parent="1" source="s6oy7LtDakHwm1-WZDtf-25" target="s6oy7LtDakHwm1-WZDtf-14" edge="1">
          <mxGeometry relative="1" as="geometry" />
        </mxCell>
        <mxCell id="s6oy7LtDakHwm1-WZDtf-25" value="EnemyShip States" style="rounded=0;whiteSpace=wrap;html=1;fillColor=#fff2cc;strokeColor=#d6b656;" parent="1" vertex="1">
          <mxGeometry x="-250" y="280" width="120" height="60" as="geometry" />
        </mxCell>
        <mxCell id="s6oy7LtDakHwm1-WZDtf-50" style="edgeStyle=orthogonalEdgeStyle;rounded=0;orthogonalLoop=1;jettySize=auto;html=1;entryX=0.5;entryY=0;entryDx=0;entryDy=0;exitX=0.5;exitY=1;exitDx=0;exitDy=0;" parent="1" source="s6oy7LtDakHwm1-WZDtf-9" target="s6oy7LtDakHwm1-WZDtf-45" edge="1">
          <mxGeometry relative="1" as="geometry" />
        </mxCell>
        <mxCell id="s6oy7LtDakHwm1-WZDtf-65" style="edgeStyle=orthogonalEdgeStyle;rounded=0;orthogonalLoop=1;jettySize=auto;html=1;entryX=1;entryY=0.5;entryDx=0;entryDy=0;" parent="1" source="s6oy7LtDakHwm1-WZDtf-29" target="s6oy7LtDakHwm1-WZDtf-9" edge="1">
          <mxGeometry relative="1" as="geometry" />
        </mxCell>
        <mxCell id="s6oy7LtDakHwm1-WZDtf-29" value="BossShipStates" style="rounded=0;whiteSpace=wrap;html=1;fillColor=#fff2cc;strokeColor=#d6b656;" parent="1" vertex="1">
          <mxGeometry x="350" y="390" width="120" height="60" as="geometry" />
        </mxCell>
        <mxCell id="s6oy7LtDakHwm1-WZDtf-56" style="edgeStyle=orthogonalEdgeStyle;rounded=0;orthogonalLoop=1;jettySize=auto;html=1;" parent="1" source="s6oy7LtDakHwm1-WZDtf-37" target="s6oy7LtDakHwm1-WZDtf-44" edge="1">
          <mxGeometry relative="1" as="geometry" />
        </mxCell>
        <mxCell id="s6oy7LtDakHwm1-WZDtf-37" value="EnemySpawner" style="rounded=0;whiteSpace=wrap;html=1;fillColor=#fff2cc;strokeColor=#d6b656;" parent="1" vertex="1">
          <mxGeometry x="-40" y="390" width="120" height="60" as="geometry" />
        </mxCell>
        <mxCell id="s6oy7LtDakHwm1-WZDtf-51" style="edgeStyle=orthogonalEdgeStyle;rounded=0;orthogonalLoop=1;jettySize=auto;html=1;" parent="1" source="s6oy7LtDakHwm1-WZDtf-41" target="s6oy7LtDakHwm1-WZDtf-43" edge="1">
          <mxGeometry relative="1" as="geometry">
            <Array as="points">
              <mxPoint y="730" />
              <mxPoint x="130" y="730" />
            </Array>
          </mxGeometry>
        </mxCell>
        <mxCell id="s6oy7LtDakHwm1-WZDtf-52" style="edgeStyle=orthogonalEdgeStyle;rounded=0;orthogonalLoop=1;jettySize=auto;html=1;entryX=0.5;entryY=1;entryDx=0;entryDy=0;" parent="1" source="s6oy7LtDakHwm1-WZDtf-41" target="s6oy7LtDakHwm1-WZDtf-42" edge="1">
          <mxGeometry relative="1" as="geometry">
            <Array as="points">
              <mxPoint y="730" />
              <mxPoint x="-150" y="730" />
            </Array>
          </mxGeometry>
        </mxCell>
        <mxCell id="7nodm3ykGLOfklfSfRpB-29" style="edgeStyle=orthogonalEdgeStyle;rounded=0;orthogonalLoop=1;jettySize=auto;html=1;entryX=1;entryY=0.5;entryDx=0;entryDy=0;" edge="1" parent="1" source="s6oy7LtDakHwm1-WZDtf-41" target="7nodm3ykGLOfklfSfRpB-28">
          <mxGeometry relative="1" as="geometry" />
        </mxCell>
        <mxCell id="s6oy7LtDakHwm1-WZDtf-41" value="Scene Manager" style="rounded=0;whiteSpace=wrap;html=1;fillColor=#d5e8d4;strokeColor=#82b366;" parent="1" vertex="1">
          <mxGeometry x="-60" y="770" width="120" height="60" as="geometry" />
        </mxCell>
        <mxCell id="s6oy7LtDakHwm1-WZDtf-42" value="SceneMenu" style="rounded=0;whiteSpace=wrap;html=1;fillColor=#d5e8d4;strokeColor=#82b366;" parent="1" vertex="1">
          <mxGeometry x="-210" y="650" width="120" height="60" as="geometry" />
        </mxCell>
        <mxCell id="s6oy7LtDakHwm1-WZDtf-47" style="edgeStyle=orthogonalEdgeStyle;rounded=0;orthogonalLoop=1;jettySize=auto;html=1;" parent="1" source="s6oy7LtDakHwm1-WZDtf-43" target="s6oy7LtDakHwm1-WZDtf-44" edge="1">
          <mxGeometry relative="1" as="geometry" />
        </mxCell>
        <mxCell id="s6oy7LtDakHwm1-WZDtf-48" style="edgeStyle=orthogonalEdgeStyle;rounded=0;orthogonalLoop=1;jettySize=auto;html=1;" parent="1" source="s6oy7LtDakHwm1-WZDtf-43" target="s6oy7LtDakHwm1-WZDtf-45" edge="1">
          <mxGeometry relative="1" as="geometry" />
        </mxCell>
        <mxCell id="s6oy7LtDakHwm1-WZDtf-43" value="SceneGame" style="rounded=0;whiteSpace=wrap;html=1;fillColor=#d5e8d4;strokeColor=#82b366;" parent="1" vertex="1">
          <mxGeometry x="70" y="640" width="120" height="60" as="geometry" />
        </mxCell>
        <mxCell id="s6oy7LtDakHwm1-WZDtf-44" value="SceneGameSurvivor" style="rounded=0;whiteSpace=wrap;html=1;fillColor=#d5e8d4;strokeColor=#82b366;" parent="1" vertex="1">
          <mxGeometry x="-40" y="530" width="120" height="60" as="geometry" />
        </mxCell>
        <mxCell id="s6oy7LtDakHwm1-WZDtf-45" value="SceneGameBoss" style="rounded=0;whiteSpace=wrap;html=1;fillColor=#d5e8d4;strokeColor=#82b366;" parent="1" vertex="1">
          <mxGeometry x="190" y="530" width="120" height="60" as="geometry" />
        </mxCell>
        <mxCell id="s6oy7LtDakHwm1-WZDtf-58" value="Timer" style="rounded=0;whiteSpace=wrap;html=1;fillColor=#dae8fc;strokeColor=#6c8ebf;" parent="1" vertex="1">
          <mxGeometry x="745" y="660" width="120" height="60" as="geometry" />
        </mxCell>
        <mxCell id="s6oy7LtDakHwm1-WZDtf-59" value="Buttons" style="rounded=0;whiteSpace=wrap;html=1;fillColor=#dae8fc;strokeColor=#6c8ebf;" parent="1" vertex="1">
          <mxGeometry x="745" y="740" width="120" height="60" as="geometry" />
        </mxCell>
        <mxCell id="s6oy7LtDakHwm1-WZDtf-60" value="Math" style="rounded=0;whiteSpace=wrap;html=1;fillColor=#dae8fc;strokeColor=#6c8ebf;" parent="1" vertex="1">
          <mxGeometry x="745" y="820" width="120" height="60" as="geometry" />
        </mxCell>
        <mxCell id="s6oy7LtDakHwm1-WZDtf-61" value="Sprite" style="rounded=0;whiteSpace=wrap;html=1;fillColor=#dae8fc;strokeColor=#6c8ebf;" parent="1" vertex="1">
          <mxGeometry x="745" y="900" width="120" height="60" as="geometry" />
        </mxCell>
        <mxCell id="7nodm3ykGLOfklfSfRpB-1" value="Shapes" style="rounded=0;whiteSpace=wrap;html=1;fillColor=#dae8fc;strokeColor=#6c8ebf;" vertex="1" parent="1">
          <mxGeometry x="920" y="660" width="120" height="60" as="geometry" />
        </mxCell>
        <mxCell id="7nodm3ykGLOfklfSfRpB-2" value="Vector2" style="rounded=0;whiteSpace=wrap;html=1;fillColor=#dae8fc;strokeColor=#6c8ebf;" vertex="1" parent="1">
          <mxGeometry x="920" y="740" width="120" height="60" as="geometry" />
        </mxCell>
        <mxCell id="7nodm3ykGLOfklfSfRpB-3" value="Copy" style="rounded=0;whiteSpace=wrap;html=1;fillColor=#dae8fc;strokeColor=#6c8ebf;" vertex="1" parent="1">
          <mxGeometry x="920" y="820" width="120" height="60" as="geometry" />
        </mxCell>
        <mxCell id="7nodm3ykGLOfklfSfRpB-4" value="Color" style="rounded=0;whiteSpace=wrap;html=1;fillColor=#dae8fc;strokeColor=#6c8ebf;" vertex="1" parent="1">
          <mxGeometry x="920" y="900" width="120" height="60" as="geometry" />
        </mxCell>
        <mxCell id="7nodm3ykGLOfklfSfRpB-5" value="Callback" style="rounded=0;whiteSpace=wrap;html=1;fillColor=#dae8fc;strokeColor=#6c8ebf;" vertex="1" parent="1">
          <mxGeometry x="745" y="980" width="120" height="60" as="geometry" />
        </mxCell>
        <mxCell id="7nodm3ykGLOfklfSfRpB-6" value="Utils" style="text;html=1;align=center;verticalAlign=middle;whiteSpace=wrap;rounded=0;" vertex="1" parent="1">
          <mxGeometry x="860" y="615" width="60" height="30" as="geometry" />
        </mxCell>
        <mxCell id="7nodm3ykGLOfklfSfRpB-22" style="edgeStyle=orthogonalEdgeStyle;rounded=0;orthogonalLoop=1;jettySize=auto;html=1;entryX=0.5;entryY=1;entryDx=0;entryDy=0;" edge="1" parent="1" source="7nodm3ykGLOfklfSfRpB-7" target="s6oy7LtDakHwm1-WZDtf-41">
          <mxGeometry relative="1" as="geometry" />
        </mxCell>
        <mxCell id="7nodm3ykGLOfklfSfRpB-7" value="" style="rounded=1;whiteSpace=wrap;html=1;" vertex="1" parent="1">
          <mxGeometry x="-420" y="945" width="280" height="160" as="geometry" />
        </mxCell>
        <mxCell id="7nodm3ykGLOfklfSfRpB-8" value="UI" style="text;html=1;align=center;verticalAlign=middle;whiteSpace=wrap;rounded=0;" vertex="1" parent="1">
          <mxGeometry x="-310" y="955" width="60" height="30" as="geometry" />
        </mxCell>
        <mxCell id="7nodm3ykGLOfklfSfRpB-9" value="Button" style="rounded=0;whiteSpace=wrap;html=1;fillColor=#ffe6cc;strokeColor=#d79b00;" vertex="1" parent="1">
          <mxGeometry x="-340" y="1005" width="120" height="60" as="geometry" />
        </mxCell>
        <mxCell id="7nodm3ykGLOfklfSfRpB-23" style="edgeStyle=orthogonalEdgeStyle;rounded=0;orthogonalLoop=1;jettySize=auto;html=1;entryX=0.5;entryY=1;entryDx=0;entryDy=0;" edge="1" parent="1" source="7nodm3ykGLOfklfSfRpB-14" target="s6oy7LtDakHwm1-WZDtf-41">
          <mxGeometry relative="1" as="geometry" />
        </mxCell>
        <mxCell id="7nodm3ykGLOfklfSfRpB-14" value="" style="rounded=1;whiteSpace=wrap;html=1;" vertex="1" parent="1">
          <mxGeometry x="130" y="900" width="400" height="250" as="geometry" />
        </mxCell>
        <mxCell id="7nodm3ykGLOfklfSfRpB-15" value="Level" style="text;html=1;align=center;verticalAlign=middle;whiteSpace=wrap;rounded=0;" vertex="1" parent="1">
          <mxGeometry x="300" y="910" width="60" height="30" as="geometry" />
        </mxCell>
        <mxCell id="7nodm3ykGLOfklfSfRpB-16" value="Background" style="rounded=0;whiteSpace=wrap;html=1;fillColor=#e1d5e7;strokeColor=#9673a6;" vertex="1" parent="1">
          <mxGeometry x="180" y="960" width="120" height="60" as="geometry" />
        </mxCell>
        <mxCell id="7nodm3ykGLOfklfSfRpB-18" value="Trigger" style="rounded=0;whiteSpace=wrap;html=1;fillColor=#e1d5e7;strokeColor=#9673a6;" vertex="1" parent="1">
          <mxGeometry x="270" y="1060" width="120" height="60" as="geometry" />
        </mxCell>
        <mxCell id="7nodm3ykGLOfklfSfRpB-19" value="Camera" style="rounded=0;whiteSpace=wrap;html=1;fillColor=#e1d5e7;strokeColor=#9673a6;" vertex="1" parent="1">
          <mxGeometry x="350" y="960" width="120" height="60" as="geometry" />
        </mxCell>
        <mxCell id="7nodm3ykGLOfklfSfRpB-27" style="edgeStyle=orthogonalEdgeStyle;rounded=0;orthogonalLoop=1;jettySize=auto;html=1;entryX=0.5;entryY=0;entryDx=0;entryDy=0;" edge="1" parent="1" source="7nodm3ykGLOfklfSfRpB-24" target="s6oy7LtDakHwm1-WZDtf-1">
          <mxGeometry relative="1" as="geometry">
            <Array as="points">
              <mxPoint x="380" y="230" />
              <mxPoint x="250" y="230" />
            </Array>
          </mxGeometry>
        </mxCell>
        <mxCell id="7nodm3ykGLOfklfSfRpB-24" value="Destruction" style="rounded=0;whiteSpace=wrap;html=1;fillColor=#fff2cc;strokeColor=#d6b656;" vertex="1" parent="1">
          <mxGeometry x="320" y="140" width="120" height="60" as="geometry" />
        </mxCell>
        <mxCell id="7nodm3ykGLOfklfSfRpB-28" value="Main" style="rounded=0;whiteSpace=wrap;html=1;fillColor=#f8cecc;strokeColor=#b85450;" vertex="1" parent="1">
          <mxGeometry x="-300" y="770" width="120" height="60" as="geometry" />
        </mxCell>
      </root>
    </mxGraphModel>
  </diagram>
</mxfile>
